M48
; DRILL file {KiCad (5.1.10)-1} date 09/09/21 13:49:22
; FORMAT={-:-/ absolute / inch / decimal}
; #@! TF.CreationDate,2021-09-09T13:49:22-04:00
; #@! TF.GenerationSoftware,Kicad,Pcbnew,(5.1.10)-1
; #@! TF.FileFunction,Plated,1,2,PTH
FMAT,2
INCH
T1C0.0150
T2C0.0217
T3C0.0300
T4C0.0315
T5C0.0354
T6C0.0461
T7C0.0591
%
G90
G05
T1
X6.65Y-4.38
T2
X6.55Y-4.5
X6.55Y-4.55
X6.55Y-4.6
T3
X6.03Y-4.55
X6.03Y-4.85
X6.13Y-4.55
X6.13Y-4.85
X6.23Y-4.55
X6.23Y-4.85
X6.33Y-4.55
X6.33Y-4.85
T4
X6.28Y-4.05
X6.28Y-4.35
X6.43Y-4.05
X6.43Y-4.35
X6.53Y-4.75
X6.53Y-4.8287
X6.58Y-4.05
X6.58Y-4.35
X6.73Y-4.05
X6.73Y-4.35
X6.73Y-4.5
X6.88Y-4.05
X6.88Y-4.35
X6.88Y-4.7
X6.88Y-4.7984
X7.03Y-4.05
X7.03Y-4.35
X7.03Y-4.5
T5
X5.81Y-2.85
X5.81Y-2.95
X6.08Y-4.1031
X6.08Y-4.2016
X6.08Y-4.3
X6.31Y-2.85
X6.31Y-2.95
T6
X5.48Y-4.8
T7
X5.48Y-4.0126
T0
M30
