%TF.GenerationSoftware,KiCad,Pcbnew,(5.1.10)-1*%
%TF.CreationDate,2021-09-09T13:48:16-04:00*%
%TF.ProjectId,555_Badge,3535355f-4261-4646-9765-2e6b69636164,v01*%
%TF.SameCoordinates,Original*%
%TF.FileFunction,Soldermask,Top*%
%TF.FilePolarity,Negative*%
%FSLAX46Y46*%
G04 Gerber Fmt 4.6, Leading zero omitted, Abs format (unit mm)*
G04 Created by KiCad (PCBNEW (5.1.10)-1) date 2021-09-09 13:48:16*
%MOMM*%
%LPD*%
G01*
G04 APERTURE LIST*
%ADD10C,1.625600*%
%ADD11C,2.601600*%
%ADD12C,1.701600*%
%ADD13C,1.901600*%
%ADD14O,1.601600X1.101600*%
%ADD15O,1.701600X1.701600*%
%ADD16C,2.001600*%
G04 APERTURE END LIST*
D10*
%TO.C,U1*%
X153162000Y-123190000D03*
X155702000Y-123190000D03*
X158242000Y-123190000D03*
X160782000Y-123190000D03*
X160782000Y-115570000D03*
X158242000Y-115570000D03*
X155702000Y-115570000D03*
X153162000Y-115570000D03*
%TD*%
%TO.C,BAT1*%
G36*
G01*
X140277000Y-123055800D02*
X138107000Y-123055800D01*
G75*
G02*
X138056200Y-123005000I0J50800D01*
G01*
X138056200Y-120835000D01*
G75*
G02*
X138107000Y-120784200I50800J0D01*
G01*
X140277000Y-120784200D01*
G75*
G02*
X140327800Y-120835000I0J-50800D01*
G01*
X140327800Y-123005000D01*
G75*
G02*
X140277000Y-123055800I-50800J0D01*
G01*
G37*
D11*
X139192000Y-101920000D03*
%TD*%
%TO.C,C1*%
G36*
G01*
X165062000Y-119799200D02*
X166662000Y-119799200D01*
G75*
G02*
X166712800Y-119850000I0J-50800D01*
G01*
X166712800Y-121450000D01*
G75*
G02*
X166662000Y-121500800I-50800J0D01*
G01*
X165062000Y-121500800D01*
G75*
G02*
X165011200Y-121450000I0J50800D01*
G01*
X165011200Y-119850000D01*
G75*
G02*
X165062000Y-119799200I50800J0D01*
G01*
G37*
D12*
X165862000Y-122650000D03*
%TD*%
%TO.C,C2*%
G36*
G01*
X173952000Y-118529200D02*
X175552000Y-118529200D01*
G75*
G02*
X175602800Y-118580000I0J-50800D01*
G01*
X175602800Y-120180000D01*
G75*
G02*
X175552000Y-120230800I-50800J0D01*
G01*
X173952000Y-120230800D01*
G75*
G02*
X173901200Y-120180000I0J50800D01*
G01*
X173901200Y-118580000D01*
G75*
G02*
X173952000Y-118529200I50800J0D01*
G01*
G37*
X174752000Y-121880000D03*
%TD*%
%TO.C,D1*%
G36*
G01*
X148474000Y-75880800D02*
X146674000Y-75880800D01*
G75*
G02*
X146623200Y-75830000I0J50800D01*
G01*
X146623200Y-74030000D01*
G75*
G02*
X146674000Y-73979200I50800J0D01*
G01*
X148474000Y-73979200D01*
G75*
G02*
X148524800Y-74030000I0J-50800D01*
G01*
X148524800Y-75830000D01*
G75*
G02*
X148474000Y-75880800I-50800J0D01*
G01*
G37*
D13*
X147574000Y-72390000D03*
%TD*%
%TO.C,D2*%
X160274000Y-72390000D03*
G36*
G01*
X161174000Y-75880800D02*
X159374000Y-75880800D01*
G75*
G02*
X159323200Y-75830000I0J50800D01*
G01*
X159323200Y-74030000D01*
G75*
G02*
X159374000Y-73979200I50800J0D01*
G01*
X161174000Y-73979200D01*
G75*
G02*
X161224800Y-74030000I0J-50800D01*
G01*
X161224800Y-75830000D01*
G75*
G02*
X161174000Y-75880800I-50800J0D01*
G01*
G37*
%TD*%
D14*
%TO.C,Q1*%
X166370000Y-115570000D03*
X166370000Y-114300000D03*
G36*
G01*
X165620000Y-116289200D02*
X167120000Y-116289200D01*
G75*
G02*
X167170800Y-116340000I0J-50800D01*
G01*
X167170800Y-117340000D01*
G75*
G02*
X167120000Y-117390800I-50800J0D01*
G01*
X165620000Y-117390800D01*
G75*
G02*
X165569200Y-117340000I0J50800D01*
G01*
X165569200Y-116340000D01*
G75*
G02*
X165620000Y-116289200I50800J0D01*
G01*
G37*
%TD*%
D12*
%TO.C,R1*%
X159512000Y-102870000D03*
D15*
X159512000Y-110490000D03*
%TD*%
%TO.C,R2*%
X163322000Y-102870000D03*
D12*
X163322000Y-110490000D03*
%TD*%
%TO.C,R3*%
X174752000Y-110490000D03*
D15*
X174752000Y-102870000D03*
%TD*%
D12*
%TO.C,R4*%
X178562000Y-102870000D03*
D15*
X178562000Y-110490000D03*
%TD*%
%TO.C,R5*%
X178562000Y-114300000D03*
D12*
X170942000Y-114300000D03*
%TD*%
%TO.C,R6*%
X167132000Y-110490000D03*
D15*
X167132000Y-102870000D03*
%TD*%
%TO.C,R7*%
X170942000Y-102870000D03*
D12*
X170942000Y-110490000D03*
%TD*%
%TO.C,S1*%
G36*
G01*
X155382000Y-110220800D02*
X153482000Y-110220800D01*
G75*
G02*
X153431200Y-110170000I0J50800D01*
G01*
X153431200Y-108270000D01*
G75*
G02*
X153482000Y-108219200I50800J0D01*
G01*
X155382000Y-108219200D01*
G75*
G02*
X155432800Y-108270000I0J-50800D01*
G01*
X155432800Y-110170000D01*
G75*
G02*
X155382000Y-110220800I-50800J0D01*
G01*
G37*
D16*
X154432000Y-106720000D03*
X154432000Y-104220000D03*
%TD*%
M02*
